<?xml version="1.0" encoding="utf-8"?>
<!-- Generator: Adobe Illustrator 24.3.0, SVG Export Plug-In . SVG Version: 6.00 Build 0)  -->
<svg version="1.1"
	 id="svg1457" inkscape:export-filename="C:\Users\Francois\Documents\PlatformIO\Projects\minimo\img\smart.png" inkscape:export-xdpi="96" inkscape:export-ydpi="96" inkscape:version="0.92.4 (5da689c313, 2019-01-14)" sodipodi:docname="smart_esc.svg" xmlns:cc="http://creativecommons.org/ns#" xmlns:dc="http://purl.org/dc/elements/1.1/" xmlns:inkscape="http://www.inkscape.org/namespaces/inkscape" xmlns:rdf="http://www.w3.org/1999/02/22-rdf-syntax-ns#" xmlns:sodipodi="http://sodipodi.sourceforge.net/DTD/sodipodi-0.dtd" xmlns:svg="http://www.w3.org/2000/svg"
	 xmlns="http://www.w3.org/2000/svg" xmlns:xlink="http://www.w3.org/1999/xlink" x="0px" y="0px" viewBox="0 0 667 425"
	 style="enable-background:new 0 0 667 425;" xml:space="preserve">
<style type="text/css">
	.st0{fill:url(#path74_1_);}
	.st1{fill:#3C3C3B;}
	.st2{font-family:'Kanit-Regular';}
	.st3{font-size:53.3333px;}
	.st4{clip-path:url(#SVGID_2_);}
	.st5{opacity:0.4;clip-path:url(#SVGID_4_);}
	.st6{mask:url(#mask116_2_);enable-background:new    ;}
	.st7{font-family:'Kanit-ExtraLight';}
	.st8{font-size:24px;}
	.st9{fill:#FFFFFF;stroke:#0D619F;stroke-width:16;stroke-miterlimit:7.1111;}
	.st10{fill:#FFFFFF;stroke:#39374D;stroke-width:16;stroke-miterlimit:7.1111;}
	.st11{fill:#0D619F;}
	.st12{fill:#39374D;}
</style>
<sodipodi:namedview  bordercolor="#666666" borderopacity="1" gridtolerance="10" guidetolerance="10" id="namedview1459" inkscape:current-layer="g10" inkscape:cx="336.07735" inkscape:cy="54.034519" inkscape:pageopacity="0" inkscape:pageshadow="2" inkscape:window-height="1377" inkscape:window-maximized="1" inkscape:window-width="2560" inkscape:window-x="-8" inkscape:window-y="32" inkscape:zoom="1.1105882" objecttolerance="10" pagecolor="#ffffff" showgrid="false">
	</sodipodi:namedview>
<image style="overflow:visible;enable-background:new    ;" width="667" height="425" id="image1465" xlink:href="860B19AB4F7D38A9.png"  transform="matrix(1 0 0 1 3.333468e-02 0)">
</image>
<g id="g10" transform="matrix(1.3333333,0,0,-1.3333333,0.166675,551.82709)" inkscape:label="2392374">
	<g id="g54" transform="matrix(1,0,0,0.63745795,0,95.130199)">
		<g id="g56">
			<g id="g62">
				<g id="g64">
					
						<radialGradient id="path74_1_" cx="-819.7313" cy="-835.7203" r="0.9999" gradientTransform="matrix(444.4444 0 0 -180.6011 364574.9688 -150682.0156)" gradientUnits="userSpaceOnUse">
						<stop  offset="0" style="stop-color:#FFFFFF"/>
						<stop  offset="4.007679e-02" style="stop-color:#FFFFFF"/>
						<stop  offset="1" style="stop-color:#E1E3E5"/>
					</radialGradient>
					<path id="path74" inkscape:connector-curvature="0" class="st0" d="M0,0h500v500H0V0z"/>
				</g>
			</g>
		</g>
	</g>
	<text transform="matrix(0.75 0 0 -0.75 160.2415 146.3174)" class="st1 st2 st3">SmartElec</text>
	<g id="g84">
		<g>
			<g>
				<defs>
					<rect id="SVGID_1_" x="-194.4" y="-194.4" width="888.9" height="888.9"/>
				</defs>
				<clipPath id="SVGID_2_">
					<use xlink:href="#SVGID_1_"  style="overflow:visible;"/>
				</clipPath>
				<g id="g86" class="st4">
					<g id="g92">
						<g id="g94">
						</g>
						<g id="g132">
							<g>
								<g>
									<defs>
										<rect id="SVGID_3_" x="9.2" y="120.5" width="481.7" height="164.3"/>
									</defs>
									<clipPath id="SVGID_4_">
										<use xlink:href="#SVGID_3_"  style="overflow:visible;"/>
									</clipPath>
									<g id="g130" class="st5">
										<g id="g128">
											<g id="g120">
											</g>
											<g id="g126">
												<g id="g124" transform="matrix(270.95999,0,0,92.399998,114.55515,156.44777)">
													<defs>
														<filter id="Adobe_OpacityMaskFilter" filterUnits="userSpaceOnUse" x="0" y="-1" width="0" height="0">
															<feColorMatrix  type="matrix" values="1 0 0 0 0  0 1 0 0 0  0 0 1 0 0  0 0 0 1 0"/>
														</filter>
													</defs>
													<mask maskUnits="userSpaceOnUse" x="0" y="-1" width="0" height="0" id="mask116_2_">
														
															<image style="overflow:visible;filter:url(#Adobe_OpacityMaskFilter);enable-background:new    ;" width="2258" height="1129" id="image118_2_" xlink:href="860B19AB4F7D38A9.jpg"  transform="matrix(1.158418e-06 0 0 -9.961663e-06 -0.4232 2.7876)">
														</image>
													</mask>
													<g transform="matrix(8.857397e-04 0 0 -2.597403e-03 0 1)" class="st6">
														<g transform="matrix(7.808030e-07 0 0 6.714411e-06 -9.203354e-05 0.9974)" style="enable-background:new    ;">
															
																<image style="overflow:visible;" width="1134" height="388" id="image122" xlink:href="860B19AB4F7D38AF.png"  transform="matrix(7.808030e-07 0 0 6.714411e-06 -9.203354e-05 0.9974)">
															</image>
														</g>
													</g>
												</g>
											</g>
										</g>
									</g>
								</g>
							</g>
						</g>
					</g>
				</g>
			</g>
		</g>
	</g>
	<text transform="matrix(6.645002e-04 0 0 1.947750e-03 114.5364 248.9503)" class="st1 st7 st8">Open Source Electronics for e-scooters</text>
	<polygon id="circle876" class="st9" points="114.5,248.7 114.5,248.7 114.5,248.7 	"/>
	<polygon id="circle884" class="st10" points="114.6,248.3 114.6,248.3 114.6,248.3 	"/>
	<polygon id="circle892" class="st9" points="114.7,248.6 114.7,248.6 114.7,248.6 	"/>
	<g id="g2656" transform="matrix(0.67606226,0,0,0.67606226,143.06357,152.76102)">
		<path id="path870" inkscape:connector-curvature="0" class="st11" d="M-42.1,141.7C-42.1,141.7-42.1,141.6-42.1,141.7l0.1-0.2
			c0,0,0,0,0,0l0,0c0,0,0,0,0,0L-42.1,141.7C-42.1,141.7-42.1,141.7-42.1,141.7L-42.1,141.7z"/>
		<path id="path872" inkscape:connector-curvature="0" class="st12" d="M-42.1,141.5L-42.1,141.5L-42.1,141.5L-42.1,141.5
			L-42.1,141.5z"/>
		<path id="path874" inkscape:connector-curvature="0" class="st11" d="M-42,141.5C-42,141.5-42,141.5-42,141.5l0-0.1c0,0,0,0,0,0
			l0,0c0,0,0,0,0,0L-42,141.5C-42,141.5-42,141.5-42,141.5L-42,141.5z"/>
		<path id="path878" inkscape:connector-curvature="0" class="st12" d="M-42,141.3C-42,141.3-42,141.3-42,141.3l0.1,0.3c0,0,0,0,0,0
			l0,0c0,0,0,0,0,0L-42,141.3C-42,141.3-42,141.3-42,141.3z"/>
		<path id="path880" inkscape:connector-curvature="0" class="st11" d="M-42,141.3l0,0.1l0,0L-42,141.3L-42,141.3z"/>
		<path id="path882" inkscape:connector-curvature="0" class="st12" d="M-42,141.6C-42,141.6-42,141.6-42,141.6L-42,141.6
			C-41.9,141.5-41.9,141.5-42,141.6L-42,141.6C-41.9,141.5-41.9,141.5-42,141.6L-42,141.6C-42,141.6-42,141.6-42,141.6L-42,141.6z"
			/>
		<path id="path886" inkscape:connector-curvature="0" class="st11" d="M-41.9,141.6C-41.9,141.6-41.9,141.6-41.9,141.6l-0.1,0.2
			c0,0,0,0,0,0l0,0c0,0,0,0,0,0L-41.9,141.6C-41.9,141.6-41.9,141.6-41.9,141.6z"/>
		<path id="path888" inkscape:connector-curvature="0" class="st12" d="M-41.9,141.7L-41.9,141.7L-41.9,141.7L-41.9,141.7
			L-41.9,141.7z"/>
		<path id="path890" inkscape:connector-curvature="0" class="st11" d="M-42,141.7C-42,141.7-42,141.7-42,141.7l0,0.1c0,0,0,0,0,0
			l0,0c0,0,0,0,0,0L-42,141.7C-42,141.8-42,141.7-42,141.7z"/>
		<path id="path894" inkscape:connector-curvature="0" class="st12" d="M-42,142C-42,142-42,142-42,142l-0.1-0.3c0,0,0,0,0,0l0,0
			c0,0,0,0,0,0L-42,142C-42,141.9-42,142-42,142z"/>
		<path id="path896" inkscape:connector-curvature="0" class="st11" d="M-42,141.9l0-0.1l0,0L-42,141.9L-42,141.9z"/>
		<path id="path898" inkscape:connector-curvature="0" class="st12" d="M-42,141.7C-42,141.7-42,141.7-42,141.7L-42,141.7
			C-42.1,141.8-42.1,141.8-42,141.7L-42,141.7C-42.1,141.7-42.1,141.7-42,141.7L-42,141.7C-42,141.7-42,141.7-42,141.7z"/>
	</g>
	<polygon id="circle900" class="st10" points="114.6,249 114.6,249 114.6,249 	"/>
</g>
</svg>
