<?xml version="1.0" encoding="utf-8"?>
<!-- Generator: Adobe Illustrator 24.3.0, SVG Export Plug-In . SVG Version: 6.00 Build 0)  -->
<svg version="1.1"
	 id="svg1457" inkscape:export-filename="C:\Users\Francois\Documents\PlatformIO\Projects\minimo\img\smart.png" inkscape:export-xdpi="96" inkscape:export-ydpi="96" inkscape:version="0.92.4 (5da689c313, 2019-01-14)" sodipodi:docname="smart.svg" xmlns:cc="http://creativecommons.org/ns#" xmlns:dc="http://purl.org/dc/elements/1.1/" xmlns:inkscape="http://www.inkscape.org/namespaces/inkscape" xmlns:rdf="http://www.w3.org/1999/02/22-rdf-syntax-ns#" xmlns:sodipodi="http://sodipodi.sourceforge.net/DTD/sodipodi-0.dtd" xmlns:svg="http://www.w3.org/2000/svg"
	 xmlns="http://www.w3.org/2000/svg" xmlns:xlink="http://www.w3.org/1999/xlink" x="0px" y="0px" viewBox="0 0 667 425"
	 style="enable-background:new 0 0 667 425;" xml:space="preserve">
<style type="text/css">
	.st0{fill:url(#path74_1_);}
	.st1{fill:#3C3C3B;}
	.st2{font-family:'Kanit-Bold';}
	.st3{font-size:53.3333px;}
	.st4{clip-path:url(#SVGID_2_);}
	.st5{opacity:0.4;clip-path:url(#SVGID_4_);}
	.st6{filter:url(#Adobe_OpacityMaskFilter);}
	.st7{mask:url(#mask104_1_);}
	.st8{font-family:'Kanit-ExtraLight';}
	.st9{font-size:24px;}
	.st10{fill:#FFFFFF;stroke:#0D619F;stroke-width:12;stroke-miterlimit:5.3333;}
	.st11{fill:#FFFFFF;stroke:#39374D;stroke-width:12;stroke-miterlimit:5.3333;}
	.st12{fill:#0D619F;}
	.st13{fill:#39374D;}
</style>
<sodipodi:namedview  bordercolor="#666666" borderopacity="1" gridtolerance="10" guidetolerance="10" id="namedview1459" inkscape:current-layer="g10" inkscape:cx="336.07735" inkscape:cy="54.034519" inkscape:pageopacity="0" inkscape:pageshadow="2" inkscape:window-height="1137" inkscape:window-maximized="1" inkscape:window-width="1920" inkscape:window-x="-8" inkscape:window-y="58" inkscape:zoom="1.1105882" objecttolerance="10" pagecolor="#ffffff" showgrid="false">
	</sodipodi:namedview>
<image style="overflow:visible;enable-background:new    ;" width="667" height="425" id="image1465" xlink:href="727DF2F6A4B0C963.png" >
</image>
<g id="g10" transform="matrix(1.3333333,0,0,-1.3333333,0.166675,551.82709)" inkscape:label="2392374">
	<g id="g54" transform="matrix(1,0,0,0.63745795,0,95.130199)">
		<g id="g56">
			<g id="g62">
				<g id="g64">
					
						<radialGradient id="path74_1_" cx="-468.2166" cy="-384.1127" r="1" gradientTransform="matrix(333.3333 0 0 -212.4859 156322.1719 -81368.5547)" gradientUnits="userSpaceOnUse">
						<stop  offset="0" style="stop-color:#FFFFFF"/>
						<stop  offset="4.007679e-02" style="stop-color:#FFFFFF"/>
						<stop  offset="1" style="stop-color:#E1E3E5"/>
					</radialGradient>
					<path id="path74" inkscape:connector-curvature="0" class="st0" d="M0,0h500v500H0V0z"/>
				</g>
			</g>
		</g>
	</g>
	<text transform="matrix(0.75 0 0 -0.75 157.5017 146.3174)" class="st1 st2 st3">SmartElec</text>
	<g id="g84">
		<g>
			<defs>
				<rect id="SVGID_1_" x="-83.3" y="-83.3" width="666.7" height="666.7"/>
			</defs>
			<clipPath id="SVGID_2_">
				<use xlink:href="#SVGID_1_"  style="overflow:visible;"/>
			</clipPath>
			<g id="g86" class="st4">
				<g id="g92">
					<g id="g94">
					</g>
					<g id="g132">
						<g>
							<defs>
								<rect id="SVGID_3_" x="69.4" y="141" width="361.3" height="123.2"/>
							</defs>
							<clipPath id="SVGID_4_">
								<use xlink:href="#SVGID_3_"  style="overflow:visible;"/>
							</clipPath>
							<g id="g130" class="st5">
								<g id="g128">
									<g id="g120">
									</g>
									<defs>
										<filter id="Adobe_OpacityMaskFilter" filterUnits="userSpaceOnUse" x="114.6" y="-248.8" width="271" height="92.4">
											<feColorMatrix  type="matrix" values="1 0 0 0 0  0 1 0 0 0  0 0 1 0 0  0 0 0 1 0"/>
										</filter>
									</defs>
									<mask maskUnits="userSpaceOnUse" x="114.6" y="-248.8" width="271" height="92.4" id="mask104_1_">
										<g id="g114_1_" class="st6">
											<g>
												<defs>
													<rect id="SVGID_5_" x="51.9" y="215.7" width="271" height="92.4"/>
												</defs>
												<clipPath id="SVGID_6_">
													<use xlink:href="#SVGID_5_"  style="overflow:visible;"/>
												</clipPath>
												<g id="g112_1_">
													<g id="g110_1_">
														<g id="g108_1_" transform="matrix(270.95999,0,0,92.399998,114.55515,156.44777)">
															
																<g transform="matrix(6.643048e-04 0 0 1.948052e-03 -0.1062 0.7661)" style="clip-path:url(#SVGID_6_);enable-background:new    ;">
																
																	<image style="overflow:visible;" width="1129" height="385" id="image106_1_" xlink:href="727DF2F6A4B0C961.png"  transform="matrix(6.643048e-04 0 0 1.948052e-03 -0.1062 0.7661)">
																</image>
															</g>
														</g>
													</g>
												</g>
											</g>
										</g>
									</mask>
									<g id="g126" class="st7">
										<g id="g124" transform="matrix(270.95999,0,0,92.399998,114.55515,156.44777)">
											<defs>
												<filter id="Adobe_OpacityMaskFilter_1_" filterUnits="userSpaceOnUse" x="0" y="-1" width="1" height="1">
													<feColorMatrix  type="matrix" values="1 0 0 0 0  0 1 0 0 0  0 0 1 0 0  0 0 0 1 0"/>
												</filter>
											</defs>
											<mask maskUnits="userSpaceOnUse" x="0" y="-1" width="1" height="1" id="mask116_1_">
												
													<image style="overflow:visible;filter:url(#Adobe_OpacityMaskFilter_1_);enable-background:new    ;" width="1129" height="385" id="image118_1_" xlink:href="727DF2F6A4B0C967.jpg"  transform="matrix(2.451671e-06 0 0 -2.108282e-05 -0.4232 2.786)">
												</image>
											</mask>
											<g transform="matrix(8.857397e-04 0 0 -2.597403e-03 0 1)" style="mask:url(#mask116_1_);enable-background:new    ;">
												
													<image style="overflow:visible;" width="1129" height="385" id="image122" xlink:href="727DF2F6A4B0C960.png"  transform="matrix(8.857397e-04 0 0 -2.597403e-03 0 1)">
												</image>
											</g>
										</g>
									</g>
								</g>
							</g>
						</g>
					</g>
				</g>
			</g>
		</g>
	</g>
	<text transform="matrix(0.75 0 0 -0.75 93.4384 116.9798)" class="st1 st8 st9">Open Source Electronics for e-scooters</text>
	<rect id="circle876" x="21.5" y="208.7" class="st10" width="0" height="0"/>
	<rect id="circle884" x="140.1" y="359.8" class="st11" width="0" height="0"/>
	<rect id="circle892" x="291.6" y="240.8" class="st10" width="0" height="0"/>
	<g id="g2656" transform="matrix(0.67606226,0,0,0.67606226,143.06357,152.76102)">
		<path id="path870" inkscape:connector-curvature="0" class="st12" d="M29,210.8c-3.4,5.9-1.4,13.5,4.5,16.9l92.9,53.6
			c5.9,3.4,13.5,1.4,16.9-4.5l0,0c3.4-5.9,1.4-13.5-4.5-16.9l-92.9-53.6C39.9,202.8,32.4,204.9,29,210.8L29,210.8z"/>
		<path id="path872" inkscape:connector-curvature="0" class="st13" d="M47.4,261.3l51,29.5l7.7-13.3l-51-29.5L47.4,261.3z"/>
		<path id="path874" inkscape:connector-curvature="0" class="st12" d="M138.7,259.9c-5.9-3.4-13.5-1.4-16.9,4.5l-20.6,35.7
			c-3.4,5.9-1.4,13.5,4.5,16.9l0,0c5.9,3.4,13.5,1.4,16.9-4.5l20.6-35.7C146.7,270.9,144.7,263.3,138.7,259.9L138.7,259.9z"/>
		<path id="path878" inkscape:connector-curvature="0" class="st13" d="M142.3,352.4c5.9,3.4,13.5,1.4,16.9-4.5l53.6-92.9
			c3.4-5.9,1.4-13.5-4.5-16.9l0,0c-5.9-3.4-13.5-1.4-16.9,4.5l-53.6,92.9C134.3,341.4,136.3,349,142.3,352.4z"/>
		<path id="path880" inkscape:connector-curvature="0" class="st12" d="M192.7,333.9l29.5-51l-13.3-7.7l-29.5,51L192.7,333.9z"/>
		<path id="path882" inkscape:connector-curvature="0" class="st13" d="M191.4,242.6c-3.4,5.9-1.4,13.5,4.5,16.9l35.7,20.6
			c5.9,3.4,13.5,1.4,16.9-4.5l0,0c3.4-5.9,1.4-13.5-4.5-16.9l-35.7-20.6C202.3,234.7,194.8,236.7,191.4,242.6L191.4,242.6z"/>
		<path id="path886" inkscape:connector-curvature="0" class="st12" d="M284.1,238.7c3.4-5.9,1.4-13.5-4.5-16.9l-92.9-53.6
			c-5.9-3.4-13.5-1.4-16.9,4.5l0,0c-3.4,5.9-1.4,13.5,4.5,16.9l92.9,53.6C273.2,246.6,280.7,244.6,284.1,238.7z"/>
		<path id="path888" inkscape:connector-curvature="0" class="st13" d="M265.7,188.2l-51-29.5L207,172l51,29.5L265.7,188.2z"/>
		<path id="path890" inkscape:connector-curvature="0" class="st12" d="M174.4,189.6c5.9,3.4,13.5,1.4,16.9-4.5l20.6-35.7
			c3.4-5.9,1.4-13.5-4.5-16.9l0,0c-5.9-3.4-13.5-1.4-16.9,4.5l-20.6,35.7C166.4,178.6,168.4,186.2,174.4,189.6z"/>
		<path id="path894" inkscape:connector-curvature="0" class="st13" d="M171,97.1c-5.9-3.4-13.5-1.4-16.9,4.5l-53.6,92.9
			c-3.4,5.9-1.4,13.5,4.5,16.9l0,0c5.9,3.4,13.5,1.4,16.9-4.5l53.6-92.9C178.9,108.1,176.9,100.6,171,97.1z"/>
		<path id="path896" inkscape:connector-curvature="0" class="st12" d="M120.5,115.6l-29.5,51l13.3,7.7l29.5-51L120.5,115.6z"/>
		<path id="path898" inkscape:connector-curvature="0" class="st13" d="M121.9,206.9c3.4-5.9,1.4-13.5-4.5-16.9l-35.7-20.6
			c-5.9-3.4-13.5-1.4-16.9,4.5l0,0c-3.4,5.9-1.4,13.5,4.5,16.9l35.7,20.6C110.9,214.9,118.5,212.9,121.9,206.9z"/>
	</g>
	<rect id="circle900" x="173.1" y="89.7" class="st11" width="0" height="0"/>
</g>
</svg>
